<?xml version="1.0" encoding="utf-8"?>
<!-- Generator: Adobe Illustrator 24.3.0, SVG Export Plug-In . SVG Version: 6.00 Build 0)  -->
<svg version="1.1" id="Layer_1" xmlns="http://www.w3.org/2000/svg" xmlns:xlink="http://www.w3.org/1999/xlink" x="0px" y="0px"
	 viewBox="0 0 270.6 131.6" style="enable-background:new 0 0 270.6 131.6;" xml:space="preserve">
<style type="text/css">
	.st0{fill:#0095D5;}
</style>
<path class="st0" d="M28.5,10.9c-0.3,0-0.3,0.2-0.4,0.3C16,30.3,8.9,43,1.4,58.6l-0.8,1.7L0.4,61c-0.7,1.6-0.6,3.3,0.4,4.7
	c4.4,7.8,29.3,17,84.7,17c41.4,0,85.3-7.5,85.3-21.6c0-13.3-43.3-21.3-85.3-21.3c-14,0-27.8,2-31.6,2.8c3.7-6.6,19.6-30.5,19.6-30.6
	c0.3-0.3,0.3-0.3,0.3-0.5v-0.3c-0.3-0.2-0.4-0.3-0.7-0.3L28.5,10.9L28.5,10.9z M44.6,61.1c0-2.8,15.7-6.9,40.9-6.9
	s40.8,4.1,40.8,6.9c0,3.1-15.5,7-40.8,7C60.2,68.1,44.6,64.2,44.6,61.1L44.6,61.1z"/>
<path class="st0" d="M59.8,131.3c7.1,0.2,206.2,8,210.7-71.6C274.1-6.1,127.6,0.2,127.6,0.2c-0.3,0-1.2,0-1.2,0.8
	c0,0.9,0.4,1.1,1,1.1C167.9,2,234,20.3,231.9,59.7c-1.7,31.9-53.3,69.4-172.1,69.4c-0.6,0-1.1,0.6-1.1,1.1
	C58.7,130.7,59.1,131.1,59.8,131.3L59.8,131.3z"/>
</svg>
