<?xml version="1.0" encoding="utf-8"?>
<!-- Generator: Adobe Illustrator 24.3.0, SVG Export Plug-In . SVG Version: 6.00 Build 0)  -->
<svg version="1.1" id="Layer_1" xmlns="http://www.w3.org/2000/svg" xmlns:xlink="http://www.w3.org/1999/xlink" x="0px" y="0px"
	 viewBox="0 0 4716 947" style="enable-background:new 0 0 4716 947;" xml:space="preserve">
<style type="text/css">
	.st0{fill:none;}
</style>
<path class="st0" d="M0,947V0h4716v947H0z M2232.2,235.3v-1H1208.3c-282,0-564,0-845.9,0.1c-10,0-20.2,0-29.9,2
	c-45.9,9.6-77.6,48-77.7,94.7c-0.2,93.9,0,187.8,0.5,281.7c0.2,36.5,17.4,64.2,48.9,82.7c17.5,10.2,36.8,12.4,56.8,12.4
	c581.6,0.1,1163.2,0.4,1744.8,0.7c547.6,0.2,1095.2,0.3,1642.9,0.3c117.3,0,234.7-0.1,352-0.2c14.1,0,27.8-1.8,41.1-6.9
	c37.5-14.3,62.2-50.4,61.9-90.5c-0.4-70.2-0.2-140.5-0.3-210.8c0-24.6,0.4-49.3-0.2-73.9c-0.9-37.5-25.9-71.5-61-85
	c-15-5.8-30.4-6.4-46.1-6.4C3474.8,235.3,2853.5,235.3,2232.2,235.3z"/>
<path d="M2232.2,235.3c621.3,0,1242.6,0,1863.8,0c15.7,0,31.1,0.6,46.1,6.4c35.1,13.6,60.1,47.6,61,85c0.6,24.6,0.2,49.3,0.2,73.9
	c0.1,70.2-0.1,140.5,0.3,210.7c0.3,40.1-24.4,76.2-61.9,90.5c-13.2,5.1-27,6.9-41.1,6.9c-117.3,0-234.7,0.1-352,0.2
	c-547.6-0.1-1095.2-0.2-1642.9-0.3c-581.6-0.2-1163.2-0.4-1744.8-0.7c-20,0-39.3-2.2-56.8-12.5c-31.5-18.5-48.7-46.2-48.9-82.7
	c-0.6-93.9-0.8-187.8-0.5-281.7c0.1-46.7,31.8-85.1,77.7-94.7c9.7-2,19.9-2,29.9-2c282-0.1,564-0.2,845.9-0.1h1023.9L2232.2,235.3z
	 M1529.9,688c5.2,0.2,9.1,0.5,13.1,0.5c79-0.1,158-0.1,237-0.2c721.6-0.1,1443.3-0.2,2164.9-0.3c55,0,110,0.3,165-0.2
	c39.2-0.4,73-35.1,72.9-74.1c-0.4-94.6,0.1-189.1,0.1-283.7c0-30.2-14.6-51.9-40.4-66.4c-14-7.9-29.5-9.6-45.4-9.6
	c-667.3,0.2-1334.6,0.3-2001.9,0.4c-184.3,0-368.7,0.2-553,0.3c-3.9,0-7.8,0.5-12.2,0.8L1529.9,688z M1026.9,451.9l-2.8-1.1v-10.6
	v-90.9c0-5.7,0.2-11.3-0.1-17c-0.5-13.9-8.3-22.2-22-23.7c-1.7-0.2-3.3-0.2-5-0.2c-24.7,0-49.3,0-74,0.1c-2.7,0-5.4,0.2-8,0.7
	c-10.9,1.9-17.7,9.1-18.9,20.1c-0.2,3-0.3,6-0.2,9c0,89.5,0,179.1,0,268.6c-0.1,3,0,6,0.3,9c1.6,11.8,9.6,19.3,21.5,19.4
	c28,0.3,56,0.3,84,0c12.7-0.1,21-8.4,22.1-21c0.3-3,0.1-6,0.1-9c0-37.3,0-74.6,0.1-111.8c0-3.4-1.5-7.4,3.3-10.4
	c2.5,1.9,5.2,3.7,7.6,5.7c31.3,26.4,62.7,52.8,94,79.2c17.6,14.8,35,29.8,52.8,44.3c14.1,11.4,29.8,21.6,48.2,22.4
	c30.6,1.4,61.3,0.6,91.9,0.4c8.3,0,10.8-4.9,5.9-11.8c-4-5.3-8.6-10.1-13.7-14.3c-39.4-33.3-78.9-66.5-118.5-99.6
	c-17.1-14.3-33.2-29.9-53.1-40.5c-0.4-0.2-0.3-1.1-0.5-1.9c0.5-0.8,1.1-1.5,1.8-2.2c50.7-43.7,101.4-87.3,152.1-131
	c3.1-2.6,6-5.3,8.7-8.3c3.3-3.7,7.5-7.8,5.1-13.2c-2.5-5.6-8.3-4.4-13.2-4.4c-25.3,0-50.7,0-76,0.1c-3.3,0-6.6,0.3-9.9,0.9
	c-18.5,3.6-34,13-48,25.2c-42.2,36.7-84.5,73.3-126.7,110C1032.9,446.8,1029.9,449.3,1026.9,451.9L1026.9,451.9z M785.8,572.9
	c4.9-0.3,8.2-0.6,11.4-0.6c8.7-0.1,17.3,0.2,26-0.2c10.3-0.4,16.6-6.9,17-17.1c0.3-6.7,0.2-13.3,0-20s-3.7-11.5-9.4-14.2
	c-2.8-1.4-6.4-1.5-9.7-1.5c-9.3-0.2-18.7-0.2-28-0.1c-5,0.1-7.5-2-7.3-7.1c0.1-2.3,0-4.7,0-7c0-55.6,0-111.1-0.1-166.7
	c0.2-4-0.1-8-0.7-11.9c-1.8-9-7.4-14.7-16.4-16.7c-3.6-0.7-7.3-1-10.9-1c-22.7-0.2-45.3,0.3-67.9-0.6c-23.4-1-42.9,7.3-60.2,22.2
	c-71.1,61.3-142.3,122.6-213.4,183.8c-4,3.5-7.6,7.4-11.3,11.2c-2.7,2.8-3.7,6.1-2.3,10.1c3,8.5,5.5,17.1,8.8,25.4
	c3.1,7.8,9.3,11.9,17.9,12c2.7,0,5.3,0,8,0c69.3-0.2,138.6-0.4,207.9-0.6c3.9,0,7.8,0.4,12.7,0.7v10.7c0,10-0.3,20,0.1,30
	c0.5,12.7,9,21.7,21.4,21.8c28.7,0.3,57.3,0.3,85.9-0.1c11-0.1,18.7-7.7,20.2-18.5c0.4-4.3,0.5-8.7,0.4-13
	C785.8,593.9,785.8,584,785.8,572.9L785.8,572.9z"/>
<path class="st0" d="M1529.9,688V255.5c4.4-0.3,8.3-0.8,12.2-0.8c184.3-0.1,368.7-0.3,553-0.3c667.3-0.1,1334.6-0.3,2001.9-0.4
	c15.9,0,31.4,1.7,45.4,9.6c25.8,14.5,40.4,36.2,40.4,66.4c0,94.6-0.5,189.1-0.1,283.7c0.2,39-33.6,73.7-72.9,74.1
	c-55,0.5-110,0.2-165,0.2c-721.6,0.1-1443.3,0.2-2164.9,0.3c-79,0-158,0.1-237,0.2C1539,688.5,1535.1,688.2,1529.9,688z M3799.9,637
	c5.3,0.2,8.8,0.5,12.3,0.5c61,0,122-0.1,183-0.2c8.7,0,17.3-0.7,25.8-2.1c35.5-6.2,60.1-25.3,70.5-60.8c6.1-20.6,8-41.8,8.5-63.1
	c0.5-22.6,0.9-45.3-0.1-67.9c-1-21.5-2.1-43.3-6.1-64.4c-7.2-38-26.3-60-68-68.9c-20.6-4.4-41.6-5.2-62.6-5.3
	c-81.7-0.3-163.3-0.5-245-0.7c-13.6,0-14.5,0.8-14.5,14.8c0,98.9,0,197.8,0,296.7c0,4.7-0.3,9.3-0.1,14c0.2,6,1.7,7.8,7.8,7.9
	c24.7,0.2,49.3,0,74,0c5.3,0,8-2.6,8.2-7.9c0.3-7,0.6-14,0.6-21c-0.2-66.3-0.5-132.5-0.8-198.8c0-6.3-1.1-12.6-0.9-18.9
	c0.3-10.5,1.9-11.8,12.5-11.8c50-0.1,100-0.1,150-0.1c4.7-0.1,9.4,0.1,14,0.7c24.1,3.2,35.9,14.4,38.8,38.3
	c3.8,32.2,2.4,64.5,0.8,96.7c-0.3,3.7-0.8,7.3-1.5,10.9c-3.9,21-15.7,33.8-35.2,37.2c-8.5,1.5-17.2,2.3-25.8,2.4
	c-29,0.3-58,0.1-87,0c-3.3,0-6.7,0.1-10,0.2c-5.1,0-8.6,2.1-11.3,6.7c-10.9,18.3-22.1,36.4-33.1,54.6
	C3803,629.4,3801.9,632.4,3799.9,637L3799.9,637z M1923,306.4c-0.3,9.2-0.7,17.5-0.7,25.7c0.1,58.9,0.4,117.8,0.3,176.7
	c-0.1,10-1,19.9-2.7,29.7c-2.2,13.6-11.1,21.6-24.2,24.8c-5.8,1.4-11.8,2.8-17.7,2.8c-33.6,0.5-67.3,0.9-100.9,0.6
	c-8.8-0.1-17.6-2.8-26.4-4.6c-14.7-3-21.4-13.5-24.9-26.9c-1-3.9-1.6-7.8-1.8-11.8c-0.9-23.3-2-46.5-2.2-69.8
	c-0.3-46.3,0.1-92.5,0.1-138.8c0-9-0.7-9.6-9.7-9.7c-22.7-0.2-45.3-0.3-68-0.3c-9.6,0-10.1,0.7-10.1,10.3
	c0,70.2-0.2,140.4,0.2,210.7c0,14,1.4,27.9,4.1,41.6c6.4,32.4,25.7,54,57.7,63.9c18.9,5.9,38.5,8.3,58.1,8.7
	c46.3,0.8,92.6,0.9,138.9,0.2c18.9-0.3,37.9-2.5,56-8.8c23.9-8.4,43.3-22,53-46.4c6.2-15.5,10.4-31.5,10.4-48.4
	c0-73.5,0-147.1,0-220.7c0-11.1-0.5-11.5-12.1-11.3c-22.7,0.3-45.3,0.7-68,1C1929.9,305.8,1927.3,306.1,1923,306.4z M2791,496.6
	c4.2-2.5,6.6-4.3,9.2-5.5c11.7-5,18.4-14.5,21.4-26.1c5.8-21.9,7-44.2,0.6-66.1c-5.6-19-16.6-33.5-38-36.3c-16.5-2.1-33-4.9-49.6-5
	c-54.6-0.5-109.3,0-164,0c-5.7,0-11.3,0-17-0.2c-5-0.1-7.3,2.5-7.8,7.1c-0.2,2-0.2,4-0.2,6c-0.3,61.6-0.5,123.2-0.7,184.8
	c0,6.3,0.2,12.7,0.4,19c0.4,10.7,0.6,10.9,11.7,10.9c8.3,0,16.7,0,25,0c8.7,0,17.3,0.2,26,0c6.9-0.2,8.1-1.5,8.4-8.2
	c0.1-1.7-0.1-3.3-0.1-5c0-47.3,0-94.6-0.1-141.8c0-2.7,0.1-5.3,0.2-8c0.2-3.6,2.3-5.4,5.7-5.8c2.3-0.2,4.7-0.3,7-0.2
	c32.3,0,64.7,0,97,0.1c4.3-0.1,8.7,0.2,12.9,0.9c9.3,1.6,14.2,6.9,14.6,16.2c0.4,8,0.4,16-0.1,24c-0.5,9.3-4.6,14-13.9,15.5
	c-6.3,0.9-12.6,1.4-18.9,1.4c-18.3,0.1-36.7,0.2-55-0.1c-8.4-0.1-14.6,2.5-18.8,10.3c-6.4,11.7-13.5,22.9-20.1,34.4
	c-1.2,2.2-1.9,4.7-3.2,8c3.9,0.8,6.7,1.8,9.5,1.8c10,0.2,20,0.1,30,0.1c22.3,0,44.7-0.1,67,0.3c14,0.2,19.3,5.6,20,19.3
	c0.4,8,0.4,16,0.2,24c-0.2,11.3,1.1,12.9,12.2,13c16.7,0.1,33.3,0.1,50,0c2.9,0,5.9-0.4,8.7-0.5c0.8-1.8,1.9-3,1.9-4.2
	c-0.4-17.9,0.4-36-1.8-53.7c-1.7-13.3-9.7-24-24.5-27C2795.5,499.6,2794.2,498.4,2791,496.6z M3356.2,502c5.1,5.4,10.4,4.1,15.2,4.1
	c54.6,0.1,109.2,0,163.9,0.1c4.9,0,9.8,0.6,15.4,1c0.4,5,0.9,9.2,1,13.5c0.1,34.3,0.1,68.5,0,102.8c0,14.1-0.1,14.1,13.6,14.1
	c21,0,42,0,62.9,0c14,0,14,0,14-14.5c0-101.8,0-203.6,0-305.4c0-1.7,0.1-3.3,0-5c-0.3-7.1-1.2-8.2-8.1-8.3
	c-24.3-0.1-48.6-0.1-72.9,0c-6.7,0-8.9,2.2-9.6,8.9c-0.4,5-0.1,10-0.1,15c0.1,30.3,0.3,60.5,0.3,90.8c0,3.8-0.9,7.6-1.4,12.1h-18.9
	c-40.3,0-80.6,0.2-120.9-0.1c-7.1,0-12.2,2.1-15.9,7.9c-2.1,3.4-4.6,6.5-6.6,10c-7.3,12.3-14.4,24.7-21.8,37
	C3363,491.2,3359.6,496.4,3356.2,502L3356.2,502z M3183.7,585.4c-1.8-5.2-2.4-8.4-3.9-11.1c-18-33.7-36.3-67.2-54.3-100.9
	c-18.5-34.6-36.8-69.2-55-103.9c-3.9-7.4-8.7-12.2-17.6-12.1c-22.7,0.2-45.3,0.2-67.9,0c-8.8,0-15,3.3-19.3,11.4
	c-13.6,25.5-27.6,50.8-41.5,76.1c-23.6,43.2-47.1,86.3-70.7,129.5c-5.2,9.5-4.4,11.1,6.8,11.1c19,0.1,38-0.3,57,0.2
	c7.8,0.2,12.4-3.1,15.6-9.8c3.6-7.5,7.8-14.7,11.2-22.3c3-6.7,7.7-8.8,14.9-8.7c38.3,0.3,76.6,0.4,114.9-0.1c9-0.1,14.4,2.8,18,10.8
	c3.1,7,6.8,13.7,10,20.6c3.2,6.7,7.8,9.7,15.7,9.5c18-0.6,36-0.2,53.9-0.2L3183.7,585.4z M3347.9,471.6L3347.9,471.6V319.9
	c0-2.7,0.1-5.3-0.1-8c-0.5-5.9-2.1-7.4-8.1-7.7c-3-0.1-6,0-9,0h-61.9c-10.5,0-11.1,0.6-11.2,11.4c0,0.7,0,1.3,0,2
	c0,102.1,0,204.3,0,306.4c0,2-0.1,4,0,6c0.5,6.2,1.7,7.5,7.9,7.6c8,0.2,16,0,24,0c16.3,0,32.6,0.1,49-0.1c8-0.1,9.2-1.5,9.4-9.3
	c0-1.3,0-2.7,0-4L3347.9,471.6z M2416.4,584.4c0.3-11.5,0.8-22,0.8-32.6c-0.1-38.6-0.5-77.2-0.7-115.8c-0.1-17.8,1.1-18.5,18.7-17.9
	c22,0.7,43.9,1.1,65.9,1.2c10.7,0.1,12.6-2.2,12.6-13c0-11.6,0-23.3,0-34.9c0-13-0.4-13.4-13.5-13.5h-3l-234.8-0.3
	c-1.7-0.1-3.3,0-5,0.2c-6.2,0.9-9,3.6-9.2,9.8c-0.3,14.3-0.1,28.6-0.2,42.9c0,4.9,2.6,7.4,7.1,8c2.7,0.3,5.3,0.4,8,0.3
	c23.3,0,46.6,0.1,69.9,0.1c11.2,0,11.5,0.3,11.6,11.9c0,2.3,0,4.7,0,7l-0.5,135.7c0,9.8,1.8,11.8,11.5,11.9c17,0.1,34,0.1,50.9,0
	C2409.3,585.2,2411.9,584.8,2416.4,584.4z M2074.6,471.9L2074.6,471.9c0.1,34.3,0.1,68.6,0.1,102.9c0,9.5,0.8,10.3,10.3,10.3
	c67,0.1,133.9,0.1,200.9,0.1c9.1,0,10.1-0.9,10.3-10.5c0.2-13,0.1-26,0-38.9c-0.1-10-0.8-10.5-11.1-10.5l-124,0.1c-2.7,0-5.3,0-8,0
	c-5,0-7.3-2.6-7.4-7.4c-0.1-2.7,0-5.3,0-8V376.1c0-3,0.1-6-0.1-9c-0.5-7.2-1.9-8.9-9.1-9c-17.7-0.3-35.3-0.3-53-0.3
	c-6.4,0-8.2,1.8-8.8,8.2c-0.3,2.6-0.1,5.3-0.1,8C2074.6,406.7,2074.6,439.3,2074.6,471.9z"/>
<path class="st0" d="M1026.9,451.8c3-2.5,6-5,8.9-7.6c42.3-36.7,84.5-73.3,126.7-110c14-12.2,29.5-21.6,48-25.2
	c3.3-0.6,6.6-0.9,9.9-0.9c25.3-0.1,50.7-0.2,76-0.1c4.9,0,10.8-1.2,13.2,4.4c2.4,5.4-1.8,9.4-5.1,13.2c-2.7,3-5.6,5.7-8.7,8.3
	c-50.7,43.7-101.4,87.3-152.1,131c-0.7,0.7-1.3,1.4-1.8,2.2c0.2,0.8,0.2,1.7,0.5,1.9c19.9,10.6,36,26.2,53.1,40.5
	c39.6,33.1,79.1,66.4,118.5,99.7c5.2,4.2,9.8,9,13.7,14.3c4.9,6.9,2.4,11.7-5.9,11.8c-30.7,0.2-61.3,1-91.9-0.4
	c-18.4-0.8-34-11-48.2-22.4c-17.8-14.5-35.2-29.5-52.8-44.3c-31.3-26.4-62.7-52.8-94-79.1c-2.5-2.1-5.2-3.9-7.6-5.7
	c-4.8,3-3.3,7-3.3,10.4c-0.1,37.3-0.1,74.6-0.1,111.8c0,3,0.1,6-0.1,9c-1.1,12.7-9.4,20.9-22.1,21c-28,0.3-56,0.3-84,0
	c-11.9-0.1-19.9-7.6-21.5-19.4c-0.3-3-0.4-6-0.3-9c0-89.5,0-179.1,0-268.6c-0.1-3,0-6,0.2-9c1.2-11,8-18.2,18.9-20.1
	c2.6-0.5,5.3-0.7,8-0.7c24.7-0.1,49.3-0.1,74-0.1c1.7,0,3.3,0,5,0.2c13.8,1.5,21.5,9.8,22,23.7c0.2,5.6,0.1,11.3,0.1,17v90.9v10.6
	L1026.9,451.8z"/>
<path class="st0" d="M785.8,572.8c0,11.2,0,21.1,0,31c0.1,4.3,0,8.7-0.4,13c-1.5,10.8-9.2,18.3-20.2,18.5
	c-28.7,0.4-57.3,0.4-85.9,0.1c-12.4-0.1-20.8-9-21.4-21.8c-0.4-10-0.1-20-0.1-30V573c-5-0.3-8.9-0.7-12.7-0.7
	c-69.3,0.2-138.6,0.3-207.9,0.6c-2.7,0-5.3,0-8,0c-8.6-0.1-14.8-4.2-17.9-12c-3.3-8.3-5.8-17-8.8-25.4c-1.4-3.9-0.4-7.2,2.3-10.1
	c3.7-3.8,7.3-7.8,11.3-11.2c71.1-61.3,142.2-122.5,213.4-183.7c17.3-14.9,36.8-23.1,60.2-22.2c22.6,0.9,45.3,0.4,67.9,0.6
	c3.7,0,7.3,0.3,10.9,1c9,1.9,14.6,7.7,16.4,16.7c0.6,3.9,0.8,7.9,0.7,11.9c0,55.6,0.1,111.1,0.1,166.7c0,2.3,0.1,4.7,0,7
	c-0.2,5.1,2.3,7.2,7.3,7.1c9.3-0.1,18.7-0.1,28,0.1c3.3,0.1,6.9,0.2,9.7,1.5c5.7,2.8,9.2,7.7,9.4,14.2s0.3,13.3,0,20
	c-0.4,10.3-6.7,16.7-17,17.1c-8.6,0.4-17.3,0.1-26,0.2C794,572.3,790.7,572.6,785.8,572.8z M527.2,518c1.2,0.4,2.5,0.6,3.8,0.8
	c39.3,0.1,78.7,0.2,118,0.2c7.9,0,8.7-0.7,8.7-8.5c0.1-33.3,0.1-66.6,0-99.9c0-1.8-0.9-3.5-1.4-5.4C646,411.3,530.9,511.7,527.2,518
	z"/>
<path d="M3799.9,637c2.1-4.5,3.1-7.5,4.7-10.2c11-18.2,22.2-36.3,33.1-54.6c2.7-4.6,6.3-6.6,11.3-6.7c3.3,0,6.7-0.2,10-0.2
	c29,0,58,0.2,87,0c8.7-0.1,17.3-0.9,25.8-2.4c19.5-3.5,31.3-16.3,35.2-37.2c0.8-3.6,1.3-7.2,1.5-10.9c1.6-32.2,3-64.5-0.8-96.7
	c-2.9-23.9-14.6-35.1-38.8-38.3c-4.6-0.5-9.3-0.8-14-0.7c-50,0-100,0-150,0.1c-10.6,0-12.2,1.3-12.5,11.8
	c-0.2,6.3,0.9,12.6,0.9,18.9c0.3,66.3,0.6,132.5,0.8,198.8c0,7-0.3,14-0.6,21c-0.2,5.2-2.9,7.9-8.2,7.9c-24.7,0-49.3,0.1-74,0
	c-6.1,0-7.6-1.8-7.8-7.9c-0.2-4.7,0.1-9.3,0.1-14c0-98.9,0-197.8,0-296.7c0-14,0.8-14.9,14.5-14.8c81.7,0.3,163.3,0.5,245,0.7
	c21,0.1,42,0.8,62.6,5.3c41.7,8.9,60.7,30.9,68,68.9c4,21.1,5.2,42.9,6.1,64.4c1,22.6,0.6,45.3,0.1,67.9
	c-0.5,21.3-2.4,42.5-8.5,63.1c-10.4,35.5-35,54.6-70.5,60.8c-8.5,1.4-17.2,2.1-25.8,2.1c-61,0.2-122,0.3-183,0.2
	C3808.7,637.5,3805.2,637.2,3799.9,637z"/>
<path d="M1923,306.4c4.4-0.3,7-0.6,9.6-0.7c22.7-0.4,45.3-0.7,68-1c11.7-0.2,12.1,0.2,12.1,11.3c0,73.6,0,147.1,0,220.7
	c0,16.9-4.3,32.9-10.4,48.4c-9.7,24.4-29.2,38-53,46.4c-18.1,6.4-37.1,8.6-56,8.8c-46.3,0.7-92.6,0.6-138.9-0.2
	c-19.6-0.3-39.2-2.8-58.1-8.7c-32-9.9-51.2-31.5-57.7-63.9c-2.7-13.7-4.1-27.6-4.2-41.6c-0.4-70.2-0.2-140.5-0.2-210.7
	c0-9.6,0.5-10.3,10.1-10.3c22.7,0,45.3,0.1,68,0.3c9,0.1,9.7,0.6,9.7,9.7c0,46.3-0.4,92.5-0.1,138.8c0.1,23.3,1.3,46.5,2.2,69.8
	c0.2,4,0.8,8,1.8,11.8c3.5,13.3,10.2,23.9,24.9,26.9c8.8,1.8,17.6,4.5,26.4,4.6c33.6,0.3,67.3-0.1,100.9-0.6
	c5.9-0.1,11.9-1.4,17.7-2.8c13.1-3.2,22-11.2,24.2-24.8c1.7-9.8,2.6-19.8,2.7-29.7c0.1-58.9-0.2-117.8-0.3-176.7
	C1922.2,323.9,1922.7,315.7,1923,306.4z"/>
<path d="M2791,496.6c3.2,1.8,4.5,3,6,3.3c14.8,3,22.8,13.7,24.5,27c2.2,17.7,1.4,35.8,1.8,53.7c0,1.2-1,2.4-1.9,4.2
	c-2.8,0.2-5.7,0.5-8.7,0.5c-16.7,0.1-33.3,0.1-50,0c-11.1,0-12.4-1.6-12.2-13c0.1-8,0.2-16-0.2-24c-0.7-13.7-6-19.1-20-19.3
	c-22.3-0.4-44.7-0.2-67-0.3c-10,0-20,0.1-30-0.1c-2.8-0.1-5.7-1-9.5-1.8c1.3-3.4,2-5.9,3.2-8c6.7-11.5,13.8-22.8,20.1-34.4
	c4.2-7.8,10.4-10.4,18.8-10.3c18.3,0.3,36.7,0.2,55,0.1c6.3,0,12.6-0.4,18.9-1.4c9.2-1.5,13.4-6.2,13.9-15.5c0.4-8,0.4-16,0.1-24
	c-0.5-9.3-5.4-14.6-14.6-16.2c-4.3-0.7-8.6-1-12.9-0.9c-32.3-0.1-64.7-0.1-97-0.1c-2.3-0.1-4.7,0-7,0.2c-3.4,0.4-5.5,2.2-5.7,5.8
	c-0.1,2.7-0.2,5.3-0.2,8c0,47.3,0,94.6,0.1,141.8c0,1.7,0.2,3.3,0.1,5c-0.3,6.8-1.5,8.1-8.4,8.2c-8.7,0.2-17.3,0-26,0
	c-8.3,0-16.7,0-25,0c-11.1-0.1-11.3-0.3-11.7-10.9c-0.2-6.3-0.4-12.7-0.4-19c0.2-61.6,0.5-123.2,0.7-184.8c0-2,0.1-4,0.2-6
	c0.4-4.7,2.8-7.3,7.8-7.1c5.7,0.2,11.3,0.2,17,0.2c54.7-0.1,109.3-0.6,164,0c16.5,0.2,33.1,2.9,49.6,5c21.4,2.7,32.4,17.3,38,36.3
	c6.4,21.9,5.2,44.2-0.6,66.1c-3.1,11.6-9.8,21.1-21.4,26.1C2797.5,492.3,2795.1,494.1,2791,496.6z"/>
<path d="M3356.2,502c3.5-5.5,6.9-10.8,10.1-16.1c7.3-12.3,14.4-24.7,21.8-37c2-3.4,4.5-6.6,6.6-10c3.7-5.9,8.8-8,15.9-7.9
	c40.3,0.3,80.6,0.1,120.9,0.1h18.9c0.6-4.5,1.4-8.3,1.4-12.1c0-30.3-0.2-60.5-0.3-90.8c0-5-0.4-10,0.1-15c0.6-6.7,2.9-8.8,9.6-8.9
	c24.3-0.1,48.6-0.1,72.9,0c7,0,7.8,1.2,8.1,8.3c0.1,1.7,0,3.3,0,5c0,101.8,0,203.6,0,305.4c0,14.5,0,14.5-14,14.5c-21,0-42,0-62.9,0
	c-13.7,0-13.6,0-13.6-14.1c0-34.3,0-68.5,0-102.8c0-4.2-0.6-8.5-1-13.5c-5.6-0.4-10.5-1-15.4-1c-54.6-0.1-109.2,0-163.9-0.1
	C3366.6,506.1,3361.3,507.4,3356.2,502z"/>
<path d="M3183.7,585.4h-12.2c-18,0-36-0.4-53.9,0.2c-7.9,0.2-12.5-2.8-15.7-9.5c-3.3-6.9-7-13.6-10-20.6c-3.5-8-9-10.9-18-10.8
	c-38.3,0.5-76.6,0.4-114.9,0.1c-7.2-0.1-11.9,2-14.9,8.7c-3.4,7.6-7.6,14.8-11.2,22.3c-3.2,6.7-7.8,10-15.6,9.8
	c-19-0.4-38-0.1-57-0.2c-11.1,0-12-1.6-6.8-11.1c23.6-43.1,47.2-86.3,70.7-129.5c13.9-25.4,27.9-50.6,41.5-76.1
	c4.3-8.1,10.4-11.4,19.3-11.4c22.7,0.1,45.3,0.1,67.9,0c8.9-0.1,13.8,4.7,17.6,12.1c18.1,34.7,36.5,69.4,55,103.9
	c18,33.7,36.2,67.3,54.3,100.9C3181.3,577.1,3181.9,580.2,3183.7,585.4z M3059.2,497.1c-3.1-12.2-37.1-74.1-43.7-79.7
	c-9,12.1-14.4,26.1-21.2,39.2s-15.1,25.4-21,40.5H3059.2z"/>
<path d="M3347.8,471.6v152.7c0,1.3,0,2.7,0,4c-0.3,7.9-1.5,9.3-9.4,9.3c-16.3,0.2-32.6,0-49,0.1c-8,0-16,0.2-24,0
	c-6.2-0.2-7.4-1.5-7.9-7.6c-0.2-2,0-4,0-6c0-102.1,0-204.3,0-306.4c0-0.7,0-1.3,0-2c0.1-10.9,0.6-11.4,11.2-11.4h61.9c3,0,6-0.1,9,0
	c6,0.3,7.6,1.8,8.1,7.7c0.2,2.6,0.1,5.3,0.1,8L3347.8,471.6L3347.8,471.6z"/>
<path d="M2416.4,584.4c-4.5,0.4-7.1,0.8-9.6,0.9c-17,0-34,0.1-50.9,0c-9.6-0.1-11.5-2.1-11.5-11.9l0.5-135.7c0-2.3,0-4.7,0-7
	c-0.1-11.5-0.4-11.9-11.6-11.9c-23.3,0-46.6-0.1-69.9-0.1c-2.7,0.1-5.3,0-8-0.3c-4.6-0.6-7.1-3.1-7.1-8c0.1-14.3-0.1-28.6,0.2-42.9
	c0.1-6.1,3-8.8,9.2-9.8c1.7-0.2,3.3-0.2,5-0.2l234.8,0.3h3c13.1,0.2,13.5,0.6,13.5,13.5c0,11.6,0,23.3,0,34.9
	c-0.1,10.8-2,13.1-12.6,13c-22-0.2-43.9-0.5-65.9-1.2c-17.6-0.6-18.8,0.1-18.7,17.9c0.2,38.6,0.6,77.2,0.7,115.8
	C2417.2,562.3,2416.7,572.9,2416.4,584.4z"/>
<path d="M2074.6,471.9c0-32.6,0-65.2,0-97.9c0-2.7-0.1-5.4,0.1-8c0.6-6.4,2.4-8.2,8.8-8.2c17.7,0,35.3,0,53,0.3
	c7.1,0.1,8.6,1.8,9.1,9c0.2,3,0.1,6,0.1,9v133.8c0,2.7,0,5.3,0,8c0.1,4.8,2.5,7.4,7.4,7.4c2.7,0,5.3,0,8,0l124-0.1
	c10.2,0,10.9,0.5,11.1,10.5c0.2,13,0.2,26,0,38.9c-0.2,9.6-1.2,10.5-10.3,10.5c-67,0-134,0-200.9-0.1c-9.4,0-10.2-0.8-10.3-10.3
	c-0.1-34.3,0-68.6,0-102.9L2074.6,471.9z"/>
<path d="M527.2,518c3.6-6.3,118.7-106.6,129.1-112.7c0.5,1.9,1.4,3.7,1.4,5.4c0.1,33.3,0.1,66.6,0,99.9c0,7.8-0.8,8.5-8.7,8.5
	c-39.3,0-78.7-0.1-118-0.2C529.7,518.6,528.5,518.4,527.2,518z"/>
<path class="st0" d="M3059.2,497.1h-85.8c5.8-15.2,14.2-27.5,21-40.5s12.2-27.1,21.2-39.2C3022.1,423,3056.1,484.9,3059.2,497.1z"/>
</svg>
