<svg id="Layer_1" data-name="Layer 1" xmlns="http://www.w3.org/2000/svg" viewBox="0 0 91.03 81.58"><defs><style>.cls-1{fill:red;}</style></defs><g id="_134267ff" data-name="#134267ff"><path class="cls-1" d="M57.57,0a36.37,36.37,0,0,1,20.3,20.24c-2.19,4.28-6.31,7.54-9.08,11.53-2.4,3.4-1.58,7.45-.84,11.12,6.3,1.4,12.63,2.9,18.41,5.48C87.8,50.29,89.42,52.13,91,54c-.17,1-.35,2-.61,3-2.42-1.06-4.78-2.75-7.7-2.54-8,.3-15.69,2.84-22.57,6.13-5.26,2.27-4.75,7.84-6.4,11.89-1,4.75-6.08,8-11.53,9.1,1.34-1.23,2.72-2.42,4.13-3.6l-5.79-.66L48.75,75c-1.75-1.62-3.52-3.21-5.32-4.79l-2.06.92c0-.54-.14-1.63-.19-2.17l6.44-.38c-2.18,0-4.36,0-6.53,0-.49-1.21-1-2.42-1.5-3.62l8-.31c-4.39-.07-8.78-.19-13.12-.69-9.84-.76-20-.15-29.58-2.21,14.56-1.41,29.3-.12,43.92-1.13-12.66-.59-25.47-.17-38-2.14a35.92,35.92,0,0,1,9.77-1.17c11.42.15,22.85-.15,34.25.35-12.37-1.39-24.92-1.19-37.31-2.41a34.88,34.88,0,0,1,9.07-1.17c13,0,26.12.1,39.16-.46-13.37-.84-26.9.32-40.13-1.75a24.54,24.54,0,0,1,9.51-1.56c13.44.21,26.91-.26,40.35.41-9-.79-18-1.7-27-1.41A54.43,54.43,0,0,1,25.89,47.5c16.1-1.17,32.27.17,48.37-.93C62.85,46.55,51.44,45.2,40,46c-5.26,0-11.12.6-15.61-2.16,11.7-1,23.52-.48,35.25-.24-11.53-1.82-23.25,0-34.85-1.25-.09-.91-.19-1.81-.28-2.72,11.31.13,22.64.46,34,0-11.55-.71-23.16.3-34.69-.92-.2-.64-.59-1.93-.8-2.58,3.86-.09,7.71-.15,11.55-.4-5.27-.44-11,0-15.38-3,7-.68,14.09-.31,21.12,0-8.24-1.48-17.58.53-24.86-3.72,8.29-.56,16.59.17,24.86-.32-9.4-.87-19.36.43-28.29-2.59,10.34-.75,20.72-.16,31.08-.26-11.35-2-23.34-.3-34.45-3.27,11.84-1.05,23.79.17,35.65-.86-12.07-1.27-24.63.11-36.35-3,8.51-.73,17.11.28,25.59-.78-7.64-1.33-16,.34-23.12-2.8,7.54-.71,15.15-.23,22.73-.18a45.37,45.37,0,0,0,6.17,0l1.14-.08c1.74,1.3,4.15,2.13,5.41,3.8,3-.17,6-.23,9.07-.35-3-1-5.9-2.1-8.74-3.34,6.11-.36,12.25-.21,18.39-.16-6.13-.26-12.34-.84-17.75-3.41,5.07-.35,10.17-.6,15.25-.53A36.54,36.54,0,0,1,48.76,7.67c3.12-.21,6.24-.38,9.37-.54l-5.37-3c2.29,0,4.57,0,6.86,0l-2-4.1M47,19.56c.16.63.46,1.91.6,2.54,6.86,0,13.71-.22,20.56-.53q-9.35-.3-18.68-.54L47,19.56m-1.13,4.92c-.28.31-.83.92-1.09,1.23,7.39-.05,14.77.22,22.16-.06-7-.28-14.05-.72-21.07-1.17m-4,4.14a133.57,133.57,0,0,0,16.62,0,115.24,115.24,0,0,0-16.62,0M40.6,31.91c5.52.53,11.08.55,16.64.71a95.43,95.43,0,0,0-16.64-.71m-1.74,3.56c6.08,1,12.28.24,18.41.13C51.14,35.44,45,34.92,38.86,35.47Z"/><path class="cls-1" d="M17.75,7.57c2.95.39,5.64,1.72,8.61,1.67C25.27,11.54,17.37,10.39,17.75,7.57Z"/><path class="cls-1" d="M13.44,11.53c7.84-.95,16.38-2.17,23.44,1.67-1.28.4-2.57.83-3.83,1.28C26.4,14.29,19.42,14.28,13.44,11.53Z"/><path class="cls-1" d="M0,64.65c9.4.21,18.83-.31,28.21.44-8.82,3.72-18.84.56-28.21.78Z"/><path class="cls-1" d="M31.23,67.53c.38-.73,1.12-2.19,1.49-2.92,2,.08,4.05.19,6.08.32C37.62,66.77,33.55,66.56,31.23,67.53Z"/><path class="cls-1" d="M0,69.35a102.39,102.39,0,0,1,13-1c-2.8,1.54-5.78,2.82-8.68,4.24l1.61-3.69c-2,.74-4,1.47-5.92,2.34Z"/><path class="cls-1" d="M14.51,68.26l5.17.32C17,69.76,14.24,70.92,11.49,72,12.5,70.77,13.5,69.51,14.51,68.26Z"/></g></svg>