<svg id="svg2046" xmlns="http://www.w3.org/2000/svg" viewBox="0 0 143.65 143.65"><defs><style>.cls-1{fill:#090;stroke:#086b37;stroke-miterlimit:1.1;stroke-width:5.56px;}.cls-1,.cls-2{fill-rule:evenodd;}.cls-2{fill:lime;}.cls-3{fill:#fff;}</style></defs><g id="g2100"><path id="path2174" class="cls-1" d="M140.87,71.82a69,69,0,1,1-138.09,0h0a69,69,0,0,1,138.09,0Z"/><path id="path2540" class="cls-2" d="M88.61,133.24a63.26,63.26,0,0,0,38.9-30.44c13.24-31.33-36.15,42-76.94,28.7A62.77,62.77,0,0,0,88.61,133.24Z"/><path id="path2197" class="cls-2" d="M71.93,7.63c-35.49,0-64.3,29.56-64.3,66A67.67,67.67,0,0,0,9.18,88C44.46,20,82.48,62.8,131.49,48.77,121.92,24.65,98.85,7.63,71.93,7.63Z"/><text/><path id="path20" class="cls-3" d="M115.46,46.86c-9.62-12.19-19.16,0-27.29,7L63.69,75.12c-5-5.82-2.39-2.79-7.44-8.61C50,59.25,48.12,55.75,38.56,64c-8.28,7.18-2.8,11.55,2.11,17.22C46.83,88.37,44.6,85.92,50.76,93c4.77,5.51,10.06,13,17.86,6.27L85.74,84.47l22-19c5.21-4.51,14.45-10.83,7.75-18.57"/></g></svg>