<svg id="Layer_1" data-name="Layer 1" xmlns="http://www.w3.org/2000/svg" viewBox="0 0 32 32"><defs><style>.cls-1{fill:#fff;opacity:0.1;isolation:isolate;}.cls-2,.cls-3{stroke:#000;stroke-miterlimit:10;}.cls-2{stroke-width:0.75px;fill-rule:evenodd;}.cls-3{font-size:11.43px;stroke-width:0.5px;font-family:ArialRoundedMTBold, Arial Rounded MT Bold;letter-spacing:-0.01em;}.cls-4{letter-spacing:-0.03em;}</style></defs><path class="cls-1" d="M11.5,3A1.5,1.5,0,0,0,10,4.5v1A1.5,1.5,0,0,1,11.5,4H29l1-1Z"/><path class="cls-2" d="M12.38,1,11.3,5.79h-6V7.4h5.62L9.86,12.24H5.32v1.61H9.51L8.43,18.68h2l1.08-4.83h5.08l-1.08,4.83h2l1.07-4.83h7V12.24H19L20.09,7.4h5.56V5.79h-5.2L21.52,1h-2L18.41,5.79H13.33L14.41,1ZM13,7.4h5.08L17,12.24H11.9Z"/><text class="cls-3" transform="translate(4.52 30.2) scale(1.14 1)">I<tspan class="cls-4" x="3.44" y="0">R</tspan><tspan x="11.37" y="0">C</tspan></text></svg>