<svg id="Layer_1" data-name="Layer 1" xmlns="http://www.w3.org/2000/svg" viewBox="0 0 79 98"><defs><style>.cls-1{fill:red;}</style></defs><g id="_134267ff" data-name="#134267ff"><path class="cls-1" d="M47.45,6.91c8.28,3.77,13.83,11.21,16.73,19.35-1.8,4.09-5.2,7.2-7.48,11-2,3.25-1.3,7.12-.69,10.63,5.19,1.34,10.41,2.77,15.17,5.24C72.37,55,73.7,56.74,75,58.49c-.14,1-.29,1.95-.5,2.9-2-1-3.94-2.62-6.35-2.42-6.61.28-12.93,2.71-18.6,5.86C45.24,67,45.66,72.32,44.3,76.19c-.81,4.54-5,7.69-9.5,8.7,1.1-1.18,2.24-2.31,3.4-3.44l-4.77-.63,6.75-2.25C38.74,77,37.28,75.5,35.8,74l-1.7.88-.16-2.07,5.31-.37c-1.8,0-3.59,0-5.38,0L32.63,69l6.59-.29A95.22,95.22,0,0,1,28.4,68C20.29,67.3,12,67.89,4,65.92c12-1.35,24.15-.12,36.2-1.08-10.43-.57-21-.17-31.29-2.05A26,26,0,0,1,17,61.67c9.41.15,18.83-.14,28.23.34C35,60.68,24.67,60.87,14.46,59.7a25.51,25.51,0,0,1,7.47-1.12c10.76,0,21.53.1,32.28-.44-11-.8-22.17.31-33.08-1.67A17.83,17.83,0,0,1,29,55c11.08.2,22.18-.25,33.26.39C54.84,54.62,47.4,53.75,40,54a38.84,38.84,0,0,1-18.62-1.71c13.27-1.11,26.6.17,39.87-.89-9.41,0-18.81-1.3-28.22-.53-4.33,0-9.16.57-12.86-2.07,9.64-.93,19.38-.45,29.05-.22-9.5-1.74-19.16,0-28.72-1.2-.08-.87-.16-1.73-.23-2.6,9.32.13,18.66.44,28,0-9.52-.68-19.09.29-28.59-.88-.17-.61-.49-1.84-.66-2.46,3.18-.09,6.35-.15,9.52-.39-4.35-.42-9.09,0-12.68-2.86,5.79-.65,11.61-.3,17.41,0-6.79-1.42-14.49.5-20.49-3.56,6.83-.53,13.67.16,20.49-.3-7.75-.84-16,.41-23.32-2.48,8.52-.72,17.08-.15,25.62-.25-9.36-1.87-19.24-.28-28.4-3.12,9.76-1,19.61.16,29.39-.83-9.95-1.21-20.3.11-30-2.86,7-.7,14.1.26,21.09-.75-6.3-1.27-13.2.33-19.06-2.68,6.22-.67,12.49-.21,18.74-.17a31.91,31.91,0,0,0,5.08,0l.94-.07c1.44,1.24,3.42,2,4.46,3.63,2.49-.16,5-.22,7.48-.34a78.54,78.54,0,0,1-7.21-3.19c5-.34,10.1-.2,15.16-.15-5-.25-10.17-.81-14.63-3.26,4.18-.34,8.38-.58,12.57-.51a26.7,26.7,0,0,1-11-3c2.57-.2,5.14-.36,7.72-.51-1.47-1-2.95-2-4.42-2.91,1.88,0,3.76,0,5.65,0C48.58,9.52,48,8.21,47.45,6.91m-8.68,18.7c.13.6.38,1.82.5,2.42,5.65,0,11.3-.21,16.94-.5q-7.69-.29-15.39-.52l-2-1.4m-.93,4.7c-.23.3-.68.88-.9,1.18,6.09,0,12.18.21,18.27-.06-5.79-.27-11.58-.69-17.37-1.12m-3.33,4a94.92,94.92,0,0,0,13.7,0,81.39,81.39,0,0,0-13.7,0m-1,3.14c4.55.51,9.14.53,13.72.68a68.48,68.48,0,0,0-13.72-.68M32,40.81c5,.94,10.12.23,15.17.13C42.15,40.79,37.08,40.29,32,40.81Z"/><path class="cls-1" d="M14.63,14.15c2.43.37,4.65,1.64,7.1,1.59C20.83,17.94,14.32,16.84,14.63,14.15Z"/><path class="cls-1" d="M11.08,17.93c6.46-.91,13.5-2.07,19.32,1.6-1.06.38-2.12.79-3.16,1.22C21.76,20.57,16,20.56,11.08,17.93Z"/><path class="cls-1" d="M0,68.71c7.75.2,15.52-.3,23.25.42C16,72.68,7.72,69.66,0,69.87Z"/><path class="cls-1" d="M25.74,71.46,27,68.67q2.51.12,5,.3C31,70.73,27.65,70.53,25.74,71.46Z"/><path class="cls-1" d="M0,73.2a73.84,73.84,0,0,1,10.71-.93C8.4,73.74,5.94,75,3.55,76.33c.34-.89,1-2.65,1.33-3.53C3.24,73.51,1.58,74.2,0,75Z"/><path class="cls-1" d="M12,72.16l4.26.3c-2.24,1.13-4.48,2.24-6.75,3.3C10.3,74.56,11.13,73.35,12,72.16Z"/></g></svg>