<svg id="svg2046" xmlns="http://www.w3.org/2000/svg" xmlns:xlink="http://www.w3.org/1999/xlink" viewBox="0 0 143.65 143.65"><defs><style>.cls-1{fill:red;stroke:#cb0000;stroke-miterlimit:1.1;stroke-width:5.56px;}.cls-1,.cls-2,.cls-3{fill-rule:evenodd;}.cls-2{fill:url(#linear-gradient);}.cls-3{fill:url(#linear-gradient-2);}.cls-4,.cls-5{fill:#fff;}.cls-4{opacity:0.74;isolation:isolate;}</style><linearGradient id="linear-gradient" x1="-13447.42" y1="20462.87" x2="-13424.88" y2="20298.2" gradientTransform="matrix(-0.27, 0.07, 0.07, 0.28, -5075.72, -4579.84)" gradientUnits="userSpaceOnUse"><stop offset="0" stop-color="#fff"/><stop offset="1" stop-color="red"/></linearGradient><linearGradient id="linear-gradient-2" x1="10292.81" y1="-9805.25" x2="10408.91" y2="-10062.62" gradientTransform="matrix(0.28, 0, 0, -0.29, -2849.71, -2822.03)" xlink:href="#linear-gradient"/></defs><g id="layer1"><g id="g2100"><path id="path2174" class="cls-1" d="M140.87,71.82a69,69,0,1,1-138.09,0h0a69,69,0,0,1,138.09,0Z"/><path id="path2540" class="cls-2" d="M88.61,133.24a63.26,63.26,0,0,0,38.9-30.44c13.24-31.33-36.15,42-76.94,28.7A62.77,62.77,0,0,0,88.61,133.24Z"/><path id="path2197" class="cls-3" d="M71.93,7.63c-35.49,0-64.3,29.56-64.3,66A67.67,67.67,0,0,0,9.18,88C44.46,20,82.48,62.8,131.49,48.77,121.92,24.65,98.85,7.63,71.93,7.63Z"/><path id="text2705" class="cls-4" d="M91.52,107.24,72,87.73l-19.7,19.69L36.22,91.33l19.7-19.69L36.41,52.13,52.07,36.47,71.58,56,91.33,36.22l16.09,16.09L87.67,72.07l19.51,19.51L91.52,107.24"/><path id="text2713" class="cls-5" d="M91.41,104.51,72,85.08,52.39,104.66,39,91.25,58.56,71.67,39.14,52.24l13-13.05L71.62,58.62,91.25,39l13.41,13.41L85,72l19.43,19.43-13,13.05"/></g></g></svg>