<?xml version="1.0" encoding="utf-8"?>
<!-- Generator: Adobe Illustrator 24.3.0, SVG Export Plug-In . SVG Version: 6.00 Build 0)  -->
<svg version="1.1" id="Layer_1" xmlns="http://www.w3.org/2000/svg" xmlns:xlink="http://www.w3.org/1999/xlink" x="0px" y="0px"
	 viewBox="0 0 646.2 623" style="enable-background:new 0 0 646.2 623;" xml:space="preserve">
<g>
	<g>
		<path d="M324.4,0c-116.2,0-210,92.8-210,207c0,114.4,94,207,210,207c116.5,0,210-93.1,210-207C534.4,92.5,440.2,0,324.4,0z
			 M432.5,328.9c-29.9,25.9-67.9,40-108.1,40c-40.2,0-78.1-14.1-108-40c-4-3.5-5.9-8.9-4.8-14.1c10.3-49.8,42.5-89,83.5-102
			c-21.4-12.5-36-38.1-36-67.7c0-41.8,29.3-75.8,65.4-75.8s65.4,33.9,65.4,75.8c0,29.6-14.7,55.2-36,67.7
			c40.9,12.9,73.1,52.2,83.5,102C438.3,320,436.5,325.4,432.5,328.9z"/>
	</g>
</g>
<g>
	<g>
		<path d="M51.8,529.4v-82h41.5v86.9c0,28.3,7.2,38.6,23.7,38.6s24.1-10.2,24.1-38.6v-86.9h40.1v82c0,54.2-20.3,79.5-64.2,79.5
			S51.8,583.6,51.8,529.4z"/>
		<path d="M205.4,586.2l23.7-28.8c11.1,9,25.1,15.4,36.7,15.4c12.6,0,17.9-4.1,17.9-11.2c0-7.6-8-10-21.3-15.4l-19.6-8.3
			c-16.9-6.8-31.6-21.2-31.6-44.2c0-27.1,24.1-49.3,58.4-49.3c17.9,0,37.7,6.8,52.2,21.2L301,492.1c-10.6-7.6-19.8-11.5-31.4-11.5
			c-10.1,0-16.4,3.7-16.4,10.7c0,7.6,8.9,10.2,23.2,15.9l19.1,7.6c19.6,7.8,30.7,21.5,30.7,43.4c0,26.8-22.2,50.8-61.3,50.8
			C245,608.9,222.3,601.6,205.4,586.2z"/>
		<path d="M351.3,447.4h101.4v35.1h-59.9v24.9H444v35.1h-51.2v28.3h62.3V606H351.3V447.4z"/>
		<path d="M485.5,447.4h59.4c33.8,0,62.8,11.7,62.8,51.2c0,38.3-29,54.2-62.8,54.2h-17.9V606h-41.5V447.4z M542,519.6
			c16.4,0,25.1-7.3,25.1-21s-8.7-18.1-25.1-18.1h-15v39H542z M537.5,541.8l28-27.8l51,92h-46.4L537.5,541.8z"/>
	</g>
</g>
</svg>
