<?xml version="1.0" encoding="utf-8"?>
<!-- Generator: Adobe Illustrator 24.3.0, SVG Export Plug-In . SVG Version: 6.00 Build 0)  -->
<svg version="1.1" id="Layer_1" xmlns="http://www.w3.org/2000/svg" xmlns:xlink="http://www.w3.org/1999/xlink" x="0px" y="0px"
	 viewBox="0 0 512 512" style="enable-background:new 0 0 512 512;" xml:space="preserve">
<style type="text/css">
	.st0{fill:none;}
</style>
<g>
	<g>
		<path d="M363.5,2.4c-7.7-4-17-2.9-23.6,2.8L300,40.1L271.9,7.3c-4-4.6-9.8-7.3-15.9-7.3c-6.1,0-11.9,2.7-15.9,7.3L212,40.1
			L172,5.2c-6.5-5.7-15.9-6.8-23.6-2.8c-7.7,4-12.1,12.4-11,21l14,118.7c1.1,9.6,8.6,17,17.9,18.3c-0.6,4.2-0.9,8.4-0.9,12.6
			c0,48.3,39.3,87.6,87.6,87.6s87.6-39.3,87.6-87.6c0-4.2-0.3-8.5-0.9-12.6c9.3-1.3,16.8-8.7,17.9-18.3l14-118.7
			C375.6,14.8,371.2,6.4,363.5,2.4z M256,218.7c-25.2,0-45.7-20.5-45.7-45.7c0-4.2,0.6-8.4,1.7-12.4l43.8,0c0.1,0,0.2,0,0.2,0h44
			c1.1,4,1.7,8.2,1.7,12.4C301.7,198.2,281.2,218.7,256,218.7z M321.2,118.7h-7.8c-0.1,0-0.1,0-0.2,0l-57.1,0c-0.1,0-0.2,0-0.2,0
			h-56.8c-0.2,0-0.3,0-0.5,0h-7.6l-5.4-46.2l14.9,13c4.2,3.7,9.7,5.5,15.3,5.1c5.6-0.4,10.8-3,14.4-7.3l26-30.3l26,30.3
			c3.6,4.2,8.8,6.9,14.4,7.3c5.6,0.4,11.1-1.4,15.3-5.1l14.9-13L321.2,118.7z"/>
	</g>
</g>
<g>
	<g>
		<path d="M1.6,471.1l18.8-22.7c8.8,7.1,20,12.1,29.2,12.1c10,0,14.2-3.3,14.2-8.8c0-6-6.3-7.9-16.9-12.1L31.3,433
			c-13.4-5.4-25.1-16.7-25.1-34.8c0-21.3,19.2-38.8,46.4-38.8c14.2,0,29.9,5.4,41.4,16.7l-16.5,20.7c-8.4-6-15.7-9-24.9-9
			c-8.1,0-13,2.9-13,8.4c0,6,7.1,8.1,18.4,12.5l15.2,6c15.5,6.1,24.4,16.9,24.4,34.2c0,21.1-17.6,39.9-48.7,39.9
			C33,488.9,15,483.1,1.6,471.1z"/>
		<path d="M141.2,389.5h-33v-27.6h99v27.6h-33v97.2h-33V389.5z"/>
		<path d="M247.9,361.8h39.9l38,124.8h-34.9l-14.2-60.7c-3.1-11.9-6.1-27.1-9.2-39.6h-0.8c-2.7,12.7-5.8,27.6-8.8,39.6l-14.2,60.7
			h-33.8L247.9,361.8z M237.2,434.6h61v25.5h-61V434.6z"/>
		<path d="M337.7,361.8H419v27.6h-48.3v23.8h41.4v27.6h-41.4v45.7h-33V361.8z"/>
		<path d="M440.5,361.8h81.3v27.6h-48.3v23.8H515v27.6h-41.4v45.7h-33V361.8z"/>
	</g>
</g>
<rect x="250" y="391" class="st0" width="3" height="39"/>
</svg>
